<svg width="138" height="50" viewBox="0 0 138 50" fill="none" xmlns="http://www.w3.org/2000/svg">
<path d="M14.7106 7.48494C14.1752 8.88193 12.7922 9.32073 12.1676 9.3655C11.8464 8.93566 12.7476 7.21629 13.2383 6.41034C13.0242 6.30288 12.2568 7.52972 11.8999 8.15657C11.2575 5.25513 14.8444 3.81337 16.7182 3.45517C16.272 4.21635 15.2459 6.08795 14.7106 7.48494Z" fill="#FFD85D"/>
<path d="M4.40488 0.902977C10.2938 1.97758 10.8738 5.3805 10.4277 6.94764C10.4277 6.19542 9.26774 5.0223 8.68777 4.52977C9.97263 6.24915 10.1154 7.75359 10.0262 8.2909C7.8505 8.02225 7.08168 6.41034 6.94784 6.14169C6.814 5.87303 5.74328 2.51489 4.40488 0.902977Z" fill="#FFD85D"/>
<path d="M2.7988 13.1266C6.43925 7.53867 9.40158 8.2909 10.4277 9.3655C9.57111 9.15058 8.19702 9.81326 7.61704 10.1715C9.54434 9.74162 10.963 9.90281 11.4984 10.1715C11.6322 10.9326 10.2978 12.455 8.01856 12.455C4.94024 12.455 3.24493 12.9028 2.7988 13.1266Z" fill="#FFD85D"/>
<path d="M27.0238 6.81331C31.1577 11.7359 32.1876 26.8156 26.0085 33.0249C24.3482 34.9961 20.3623 41.4222 22.741 43.6694C19.6514 42.7823 15.6521 40.9151 13.2383 39.0863C9.53077 36.2774 9.25987 33.3205 12.5691 30.186C13.4168 30.3651 15.46 30.9651 16.852 31.9322C18.5919 33.1412 19.3949 32.0666 19.7965 29.5144C20.4211 29.783 21.6435 29.8368 21.5364 27.9025C22.0718 27.992 23.0622 27.6338 22.741 25.4846C23.8117 25.216 25.4178 26.6935 24.7486 21.5892C24.5372 19.9772 26.087 15.9475 26.3546 15.1415C26.6223 14.3356 27.6931 8.42522 27.0238 6.81331Z" fill="#FFD85D"/>
<path d="M16.3166 0.5C18.5027 1.52983 22.4733 6.27601 18.7258 9.63416C13.9981 13.8706 12.0737 14.8393 9.25987 16.6191C8.92737 16.8294 8.58246 17.051 8.21904 17.2907C6.97717 18.1098 5.29532 18.89 3.60184 20.6489C-1.76607 26.2242 0.176538 35.7447 1.19275 37.6079C4.00345 42.7614 11.4984 52.8355 44.5773 48.4003C44.9206 48.4003 53.0516 47.0401 82.8292 41.5996C112.607 36.1591 132.017 44.3593 138 49.1395C127.054 30.4524 91.3622 35.0454 74.8845 39.6777C61.3493 42.7823 54.4345 45.5913 35.3087 46.9219C16.1694 48.2534 7.42202 41.6489 5.1171 36.8687C3.20451 33.6162 3.75353 25.3176 8.95545 23.2011C13.9075 21.1862 19.2611 19.9772 23.4102 15.5445C27.5592 11.1117 27.9607 3.45517 16.3166 0.5Z" fill="#FFD85D"/>
<path d="M130.756 19.5859C130.524 19.8418 130.29 20.0799 130.052 20.3001C129.814 20.5143 129.58 20.7018 129.348 20.8625C129.116 21.0232 128.887 21.1512 128.661 21.2464C128.442 21.3357 128.228 21.3803 128.02 21.3803C127.788 21.3803 127.577 21.3387 127.387 21.2553C127.203 21.1661 127.042 21.0411 126.906 20.8804C126.775 20.7197 126.674 20.5292 126.603 20.309C126.531 20.0888 126.496 19.8448 126.496 19.577C126.496 19.2199 126.57 18.8479 126.718 18.461C126.867 18.0742 127.057 17.6992 127.289 17.3361C127.527 16.9671 127.788 16.619 128.073 16.2916C128.364 15.9643 128.647 15.6816 128.92 15.4435L129.303 15.7113C129.232 15.8125 129.134 15.9524 129.009 16.1309C128.884 16.3095 128.751 16.5178 128.608 16.7559C128.465 16.988 128.32 17.2409 128.171 17.5147C128.029 17.7885 127.898 18.0682 127.779 18.3539C127.66 18.6396 127.562 18.9252 127.485 19.2109C127.414 19.4966 127.378 19.7644 127.378 20.0144C127.378 20.1334 127.387 20.2495 127.405 20.3626C127.429 20.4697 127.464 20.5649 127.512 20.6483C127.565 20.7316 127.634 20.797 127.717 20.8447C127.8 20.8923 127.907 20.9161 128.038 20.9161C128.246 20.9161 128.471 20.8536 128.715 20.7286C128.965 20.5977 129.22 20.4221 129.481 20.2019C129.749 19.9757 130.019 19.7138 130.293 19.4163C130.572 19.1187 130.845 18.8003 131.113 18.461C131.38 18.1218 131.638 17.7736 131.888 17.4165C132.138 17.0534 132.369 16.6963 132.583 16.3452C132.773 16.0297 132.964 15.7143 133.154 15.3989C133.344 15.0775 133.534 14.765 133.724 14.4615L134.143 14.6757C134.137 14.6876 134.081 14.8007 133.974 15.015C133.873 15.2233 133.736 15.509 133.564 15.872C133.391 16.2291 133.189 16.6457 132.958 17.1219C132.732 17.5921 132.491 18.095 132.236 18.6306C131.98 19.1603 131.719 19.7049 131.451 20.2644C131.19 20.8238 130.934 21.3684 130.685 21.8981C131.523 21.4339 132.28 20.8833 132.958 20.2465C133.641 19.6097 134.226 18.9431 134.713 18.2468L135.043 18.4967C134.526 19.2883 133.885 20.0204 133.118 20.6929C132.352 21.3595 131.428 21.9993 130.346 22.6123C129.853 23.6717 129.369 24.6389 128.893 25.5138C128.424 26.3887 127.951 27.1386 127.476 27.7635C127.007 28.3884 126.537 28.8705 126.068 29.2098C125.592 29.555 125.111 29.7276 124.624 29.7276C124.303 29.7276 124.036 29.6204 123.822 29.4062C123.608 29.1919 123.501 28.8854 123.501 28.4866C123.501 28.1533 123.575 27.8111 123.724 27.46C123.872 27.1088 124.077 26.7547 124.339 26.3976C124.6 26.0464 124.912 25.6953 125.275 25.3441C125.631 24.9989 126.023 24.6656 126.451 24.3443C126.873 24.0229 127.316 23.7164 127.779 23.4247C128.249 23.1331 128.724 22.8653 129.205 22.6212C129.33 22.3594 129.464 22.0826 129.606 21.791C129.749 21.5053 129.889 21.2285 130.025 20.9607C130.162 20.6869 130.293 20.431 130.417 20.193C130.548 19.9489 130.661 19.7466 130.756 19.5859ZM128.795 23.4872C128.112 23.9098 127.476 24.3591 126.888 24.8353C126.305 25.3174 125.8 25.7905 125.373 26.2547C124.939 26.7249 124.6 27.1654 124.356 27.576C124.113 27.9867 123.991 28.3349 123.991 28.6205C123.991 28.811 124.047 28.9628 124.16 29.0758C124.267 29.1889 124.407 29.2455 124.579 29.2455C124.811 29.2455 125.052 29.1651 125.301 29.0044C125.545 28.8497 125.791 28.6354 126.041 28.3616C126.285 28.0879 126.528 27.7635 126.772 27.3885C127.016 27.0195 127.253 26.6208 127.485 26.1923C127.723 25.7697 127.951 25.3263 128.171 24.8621C128.391 24.4038 128.599 23.9455 128.795 23.4872Z" fill="#F0EADB"/>
<path d="M123.75 14.2115C123.81 14.1103 123.914 13.9348 124.062 13.6848C124.217 13.4348 124.395 13.1581 124.597 12.8545C124.805 12.551 125.028 12.2475 125.266 11.9439C125.509 11.6344 125.747 11.3726 125.979 11.1583L126.38 11.3993C126.124 11.8219 125.863 12.2713 125.595 12.7474C125.328 13.2176 125.064 13.7056 124.802 14.2115H127.708L127.53 14.6757H124.561C124.294 15.2114 124.042 15.7441 123.804 16.2738C123.572 16.8035 123.367 17.3094 123.189 17.7915C123.011 18.2735 122.871 18.7259 122.77 19.1484C122.669 19.5651 122.618 19.9281 122.618 20.2376C122.618 20.6245 122.708 20.9042 122.886 21.0768C123.064 21.2434 123.284 21.3268 123.545 21.3268C123.777 21.3268 124.015 21.2583 124.258 21.1214C124.502 20.9786 124.74 20.8 124.971 20.5858C125.209 20.3715 125.432 20.1364 125.64 19.8805C125.854 19.6246 126.041 19.3835 126.201 19.1574C126.368 18.9312 126.505 18.7348 126.611 18.5681C126.718 18.3955 126.784 18.2884 126.808 18.2468L127.137 18.4967C126.929 18.8419 126.695 19.208 126.433 19.5948C126.172 19.9817 125.881 20.3417 125.56 20.675C125.245 21.0024 124.9 21.2762 124.526 21.4964C124.151 21.7106 123.747 21.8178 123.314 21.8178C123.046 21.8178 122.812 21.7702 122.61 21.6749C122.413 21.5797 122.247 21.4488 122.11 21.2821C121.974 21.1095 121.873 20.9072 121.807 20.675C121.736 20.4429 121.7 20.19 121.7 19.9162C121.7 19.7377 121.73 19.4847 121.79 19.1574C121.843 18.83 121.938 18.4432 122.075 17.9968C122.211 17.5445 122.393 17.0386 122.618 16.4791C122.85 15.9196 123.141 15.3185 123.492 14.6757H122.012L122.191 14.2115H123.75Z" fill="#F0EADB"/>
<path d="M118.18 19.6305C117.906 19.9519 117.636 20.2495 117.369 20.5233C117.101 20.7911 116.834 21.0232 116.566 21.2196C116.305 21.4101 116.044 21.5589 115.782 21.666C115.521 21.7791 115.256 21.8356 114.989 21.8356C114.763 21.8356 114.558 21.794 114.374 21.7106C114.196 21.6333 114.041 21.5232 113.91 21.3803C113.774 21.2315 113.67 21.053 113.598 20.8447C113.527 20.6304 113.491 20.3923 113.491 20.1305C113.491 19.7198 113.584 19.2972 113.768 18.8628C113.946 18.4283 114.172 18.0057 114.445 17.595C114.724 17.1844 115.03 16.7945 115.363 16.4255C115.702 16.0565 116.023 15.7292 116.326 15.4435L116.709 15.7113C116.495 16.0268 116.255 16.3839 115.987 16.7826C115.726 17.1814 115.476 17.595 115.238 18.0236C115.007 18.4461 114.811 18.8717 114.65 19.3002C114.49 19.7228 114.41 20.1156 114.41 20.4786C114.41 20.7227 114.454 20.931 114.543 21.1036C114.638 21.2762 114.817 21.3625 115.078 21.3625C115.363 21.3625 115.675 21.2494 116.014 21.0232C116.358 20.797 116.709 20.5024 117.066 20.1394C117.428 19.7763 117.788 19.3686 118.144 18.9163C118.507 18.458 118.848 17.9968 119.169 17.5325C119.49 17.0683 119.781 16.6249 120.043 16.2023C120.31 15.7798 120.527 15.4197 120.693 15.1221L121.344 15.4435C120.999 16.122 120.666 16.7559 120.346 17.3451C120.031 17.9283 119.748 18.4551 119.499 18.9252C119.255 19.3895 119.059 19.7942 118.911 20.1394C118.768 20.4846 118.697 20.7584 118.697 20.9607C118.697 21.044 118.715 21.1125 118.75 21.1661C118.786 21.2196 118.842 21.2464 118.92 21.2464C119.139 21.2524 119.38 21.1571 119.641 20.9607C119.909 20.7643 120.176 20.5173 120.444 20.2197C120.717 19.9222 120.981 19.5978 121.237 19.2466C121.498 18.8895 121.733 18.5562 121.941 18.2468L122.262 18.4967C122.226 18.5562 122.152 18.6782 122.039 18.8628C121.926 19.0473 121.787 19.2585 121.62 19.4966C121.454 19.7347 121.264 19.9846 121.05 20.2465C120.836 20.5084 120.61 20.7494 120.372 20.9696C120.135 21.1839 119.888 21.3625 119.633 21.5053C119.377 21.6422 119.125 21.7106 118.875 21.7106C118.72 21.7106 118.581 21.6839 118.456 21.6303C118.337 21.5767 118.236 21.5053 118.153 21.416C118.07 21.3267 118.004 21.2226 117.957 21.1036C117.909 20.9845 117.886 20.8595 117.886 20.7286C117.886 20.5739 117.909 20.4042 117.957 20.2197C118.01 20.0352 118.085 19.8388 118.18 19.6305Z" fill="#F0EADB"/>
<path d="M113.037 15.6399C112.96 15.7947 112.85 15.997 112.707 16.247C112.57 16.497 112.422 16.7737 112.261 17.0772C112.101 17.3748 111.938 17.6873 111.771 18.0146C111.611 18.342 111.462 18.6634 111.326 18.9788C111.195 19.2883 111.085 19.5829 110.996 19.8626C110.913 20.1364 110.871 20.3685 110.871 20.559C110.871 20.7494 110.907 20.8744 110.978 20.9339C111.055 20.9875 111.153 21.0143 111.272 21.0143C111.444 21.0143 111.62 20.9637 111.798 20.8625C111.982 20.7613 112.16 20.6304 112.333 20.4697C112.511 20.309 112.683 20.1275 112.85 19.9251C113.016 19.7228 113.171 19.5204 113.313 19.3181C113.462 19.1097 113.595 18.9133 113.714 18.7288C113.833 18.5384 113.934 18.3777 114.017 18.2468L114.338 18.4967C114.237 18.6872 114.118 18.8925 113.982 19.1127C113.845 19.3329 113.693 19.5561 113.527 19.7823C113.367 20.0025 113.191 20.2168 113.001 20.4251C112.811 20.6334 112.609 20.8179 112.395 20.9786C112.187 21.1393 111.967 21.2672 111.736 21.3625C111.504 21.4577 111.266 21.5053 111.023 21.5053C110.666 21.5053 110.405 21.3982 110.238 21.1839C110.072 20.9697 109.989 20.6929 109.989 20.3537C109.989 20.3298 109.989 20.2793 109.989 20.2019C109.995 20.1186 110.003 20.0531 110.015 20.0055C109.718 20.3804 109.433 20.6899 109.16 20.9339C108.892 21.178 108.631 21.3714 108.375 21.5142C108.126 21.6571 107.882 21.7553 107.644 21.8088C107.413 21.8684 107.19 21.8981 106.976 21.8981C106.75 21.8981 106.536 21.8594 106.334 21.7821C106.138 21.7106 105.966 21.6035 105.817 21.4607C105.663 21.3178 105.544 21.1422 105.461 20.9339C105.372 20.7256 105.327 20.4846 105.327 20.2108C105.327 19.8716 105.404 19.4847 105.559 19.0502C105.707 18.6098 105.975 18.1366 106.361 17.6308C106.688 17.1963 107.027 16.8303 107.377 16.5327C107.734 16.2351 108.081 15.997 108.42 15.8185C108.765 15.634 109.091 15.503 109.4 15.4257C109.709 15.3483 109.986 15.3096 110.229 15.3096C110.776 15.3096 111.189 15.4018 111.468 15.5864C111.747 15.7649 111.917 16.0417 111.976 16.4166C112.095 16.2678 112.22 16.119 112.351 15.9702C112.481 15.8214 112.615 15.6697 112.752 15.5149L113.037 15.6399ZM110.301 19.0324C110.378 18.9074 110.473 18.7497 110.586 18.5592C110.699 18.3628 110.818 18.1634 110.942 17.9611C111.067 17.7528 111.189 17.5534 111.308 17.3629C111.427 17.1725 111.531 17.0118 111.62 16.8808C111.62 16.8273 111.611 16.741 111.593 16.6219C111.581 16.5029 111.542 16.3839 111.477 16.2648C111.412 16.1399 111.308 16.0327 111.165 15.9435C111.023 15.8542 110.823 15.8095 110.568 15.8095C110.384 15.8095 110.176 15.8393 109.944 15.8988C109.718 15.9524 109.475 16.0476 109.213 16.1845C108.958 16.3154 108.693 16.491 108.42 16.7112C108.147 16.9314 107.873 17.2052 107.6 17.5326C107.19 18.0265 106.872 18.5235 106.646 19.0234C106.426 19.5174 106.316 19.9638 106.316 20.3626C106.316 20.7018 106.394 20.9637 106.548 21.1482C106.703 21.3327 106.923 21.425 107.208 21.425C107.535 21.425 107.841 21.3535 108.126 21.2107C108.411 21.0619 108.678 20.8714 108.928 20.6393C109.178 20.4072 109.415 20.1513 109.641 19.8716C109.867 19.5859 110.087 19.3062 110.301 19.0324Z" fill="#F0EADB"/>
<path d="M100.122 19.5412C100.11 19.6127 100.101 19.6841 100.095 19.7555C100.089 19.8269 100.086 19.8983 100.086 19.9698C100.086 20.184 100.116 20.3894 100.175 20.5858C100.241 20.7762 100.333 20.9458 100.452 21.0946C100.576 21.2375 100.728 21.3506 100.906 21.4339C101.09 21.5172 101.298 21.5589 101.53 21.5589C102.309 21.5589 103.06 21.294 103.785 20.7643C104.51 20.2346 105.232 19.3954 105.951 18.2468L106.254 18.5146C105.862 19.1693 105.464 19.7228 105.06 20.1751C104.656 20.6215 104.252 20.9845 103.848 21.2643C103.449 21.544 103.057 21.7463 102.671 21.8713C102.285 21.9963 101.916 22.0588 101.566 22.0588C101.31 22.0588 101.04 22.0231 100.755 21.9517C100.469 21.8803 100.205 21.7612 99.9614 21.5946C99.7237 21.4279 99.5277 21.2047 99.3732 20.925C99.2127 20.6453 99.1325 20.2971 99.1325 19.8805C99.1325 19.4341 99.2098 19.0056 99.3642 18.5949C99.5128 18.1783 99.7089 17.7914 99.9525 17.4343C100.196 17.0772 100.475 16.7529 100.79 16.4612C101.105 16.1637 101.423 15.9107 101.744 15.7024C102.071 15.4941 102.389 15.3334 102.698 15.2203C103.007 15.1013 103.28 15.0418 103.518 15.0418C103.672 15.0418 103.83 15.0656 103.99 15.1132C104.151 15.1608 104.293 15.2352 104.418 15.3364C104.549 15.4376 104.653 15.5715 104.73 15.7381C104.813 15.9048 104.855 16.1041 104.855 16.3363C104.855 16.6517 104.78 16.9493 104.632 17.229C104.489 17.5028 104.296 17.7587 104.053 17.9968C103.809 18.2289 103.527 18.4402 103.206 18.6306C102.885 18.8151 102.549 18.9729 102.199 19.1038C101.848 19.2347 101.494 19.3389 101.138 19.4163C100.781 19.4936 100.443 19.5353 100.122 19.5412ZM100.193 19.1574C100.591 19.1157 100.966 19.0324 101.316 18.9074C101.667 18.7824 101.988 18.6306 102.279 18.4521C102.57 18.2676 102.828 18.0682 103.054 17.8539C103.286 17.6397 103.479 17.4224 103.634 17.2022C103.788 16.982 103.907 16.7707 103.99 16.5684C104.073 16.366 104.115 16.1845 104.115 16.0238C104.115 15.8631 104.07 15.7351 103.981 15.6399C103.898 15.5447 103.797 15.4971 103.678 15.4971C103.417 15.4971 103.123 15.5923 102.796 15.7828C102.469 15.9673 102.142 16.2262 101.815 16.5595C101.489 16.8868 101.18 17.2737 100.888 17.72C100.603 18.1664 100.371 18.6455 100.193 19.1574Z" fill="#F0EADB"/>
<path d="M95.9951 8.73893C95.9 8.85797 95.8079 8.97402 95.7188 9.08711C95.6356 9.19424 95.5524 9.30732 95.4692 9.42635C96.0694 9.64656 96.5537 9.92034 96.9221 10.2477C97.2905 10.5691 97.5757 10.9083 97.7777 11.2654C97.9798 11.6166 98.1134 11.9647 98.1788 12.3099C98.2501 12.6492 98.2858 12.9438 98.2858 13.1938C98.2858 13.5449 98.2263 13.8812 98.1075 14.2026C97.9946 14.518 97.8401 14.8067 97.644 15.0686C97.4539 15.3304 97.2311 15.5596 96.9755 15.756C96.72 15.9464 96.4526 16.0922 96.1734 16.1934C96.7497 16.6696 97.1776 17.1993 97.4569 17.7825C97.7421 18.3658 97.8847 18.955 97.8847 19.5502C97.8847 20.0501 97.7807 20.5233 97.5727 20.9696C97.3707 21.416 97.0944 21.8059 96.7438 22.1392C96.3932 22.4724 95.9773 22.7373 95.496 22.9337C95.0206 23.1301 94.5126 23.2283 93.9718 23.2283C93.5024 23.2283 93.0686 23.1509 92.6705 22.9962C92.2784 22.8474 91.9248 22.6421 91.6099 22.3802C91.3009 22.1183 91.0305 21.8088 90.7988 21.4517C90.573 21.0946 90.3947 20.7137 90.264 20.309L90.7097 20.1751C90.9295 20.8893 91.292 21.4398 91.7971 21.8267C92.3021 22.2195 92.9112 22.4159 93.6242 22.4159C94.0639 22.4159 94.4829 22.3326 94.881 22.1659C95.285 22.0052 95.6386 21.785 95.9416 21.5053C96.2447 21.2196 96.4853 20.8863 96.6636 20.5054C96.8418 20.1186 96.931 19.7019 96.931 19.2556C96.931 18.952 96.8894 18.6634 96.8062 18.3896C96.723 18.1158 96.6131 17.8569 96.4764 17.6129C96.3397 17.3689 96.1853 17.1457 96.0129 16.9433C95.8466 16.735 95.6742 16.5505 95.496 16.3898C95.3355 16.4196 95.1751 16.4434 95.0147 16.4612C94.8542 16.4791 94.6968 16.488 94.5423 16.488C94.3284 16.488 94.1085 16.4731 93.8827 16.4434C93.6629 16.4077 93.4608 16.3571 93.2766 16.2916C93.0984 16.2262 92.9498 16.1399 92.831 16.0327C92.7181 15.9256 92.6616 15.7947 92.6616 15.6399C92.6616 15.6042 92.6705 15.5536 92.6884 15.4881C92.7062 15.4167 92.7418 15.3483 92.7953 15.2828C92.8547 15.2173 92.9409 15.1608 93.0538 15.1132C93.1667 15.0596 93.3212 15.0328 93.5173 15.0328C93.7015 15.0328 93.8857 15.0537 94.0699 15.0953C94.26 15.137 94.4413 15.1935 94.6136 15.265C94.7859 15.3304 94.9523 15.4078 95.1127 15.4971C95.2731 15.5804 95.4187 15.6667 95.5495 15.756C95.7634 15.6607 95.9773 15.5328 96.1912 15.3721C96.4111 15.2054 96.6101 15.0031 96.7884 14.765C96.9666 14.5269 97.1122 14.2532 97.2251 13.9437C97.338 13.6342 97.3945 13.286 97.3945 12.8992C97.3945 12.2207 97.2073 11.6106 96.8329 11.069C96.4586 10.5274 95.903 10.1138 95.1662 9.82809C94.8097 10.328 94.4769 10.825 94.1679 11.319C93.8589 11.813 93.5708 12.307 93.3034 12.801C93.036 13.2949 92.7834 13.7889 92.5457 14.2829C92.314 14.7769 92.0912 15.2769 91.8773 15.7828C91.3841 16.9374 90.9028 17.9254 90.4334 18.7467C89.9639 19.5621 89.4618 20.2287 88.927 20.7465C88.3982 21.2643 87.8188 21.6422 87.189 21.8803C86.5651 22.1243 85.8491 22.2463 85.0409 22.2463C84.417 22.2463 83.8793 22.1421 83.4277 21.9338C82.9761 21.7315 82.6047 21.4517 82.3135 21.0946C82.0224 20.7375 81.8055 20.3239 81.6629 19.8537C81.5262 19.3776 81.4579 18.8717 81.4579 18.336C81.4579 17.7409 81.553 17.1278 81.7431 16.497C81.9332 15.8601 82.2155 15.2263 82.5898 14.5954C82.8275 14.1966 83.1217 13.783 83.4722 13.3545C83.8228 12.92 84.2239 12.4944 84.6755 12.0778C85.1271 11.6553 85.6292 11.2565 86.1818 10.8815C86.7404 10.5006 87.3405 10.1703 87.9823 9.89058C88.6299 9.6049 89.3192 9.37874 90.0501 9.21209C90.7869 9.03949 91.5623 8.95319 92.3764 8.95319C92.8755 8.95319 93.3301 8.97997 93.7401 9.03354C94.156 9.08115 94.5393 9.15257 94.8899 9.2478C95.0266 9.11091 95.1632 8.97402 95.2999 8.83713C95.4425 8.70025 95.5881 8.56336 95.7366 8.42647L95.9951 8.73893ZM92.4477 12.4439C92.7626 11.9201 93.0894 11.4291 93.4281 10.9708C93.7728 10.5066 94.1412 10.0602 94.5334 9.63168C94.3076 9.57812 94.0669 9.53646 93.8114 9.5067C93.5618 9.47694 93.2974 9.46206 93.0181 9.46206C92.1209 9.46206 91.2355 9.58705 90.362 9.83702C89.4945 10.081 88.6656 10.4233 87.8753 10.8637C87.0909 11.3041 86.363 11.8279 85.6916 12.4349C85.0201 13.042 84.4378 13.7026 83.9446 14.4168C83.4574 15.1251 83.0741 15.875 82.7948 16.6666C82.5215 17.4582 82.3848 18.2616 82.3848 19.077C82.3848 19.4817 82.4383 19.8507 82.5453 20.184C82.6582 20.5114 82.8246 20.7941 83.0444 21.0321C83.2643 21.2643 83.5346 21.4458 83.8555 21.5767C84.1823 21.7017 84.5567 21.7642 84.9785 21.7642C85.6857 21.7642 86.3036 21.6333 86.8325 21.3714C87.3613 21.1036 87.8307 20.7405 88.2407 20.2822C88.6567 19.8239 89.031 19.2913 89.3638 18.6842C89.6965 18.0712 90.0204 17.4195 90.3353 16.7291C90.6562 16.0387 90.983 15.3274 91.3157 14.5954C91.6485 13.8633 92.0258 13.1462 92.4477 12.4439ZM94.9434 15.9345C94.8542 15.8691 94.7473 15.8095 94.6225 15.756C94.5037 15.6965 94.3789 15.6488 94.2481 15.6131C94.1174 15.5715 93.9867 15.5387 93.856 15.5149C93.7252 15.4911 93.6123 15.4792 93.5173 15.4792C93.3509 15.4792 93.2439 15.5 93.1964 15.5417C93.1548 15.5774 93.134 15.6102 93.134 15.6399C93.134 15.6935 93.1726 15.7411 93.2499 15.7828C93.3331 15.8244 93.4341 15.8631 93.5529 15.8988C93.6777 15.9286 93.8144 15.9524 93.9629 15.9702C94.1115 15.9881 94.2571 15.997 94.3997 15.997C94.465 15.997 94.5393 15.994 94.6225 15.9881C94.7057 15.9821 94.8126 15.9643 94.9434 15.9345Z" fill="#F0EADB"/>
<path d="M69.8352 19.5412C69.8234 19.6127 69.8144 19.6841 69.8085 19.7555C69.8026 19.8269 69.7996 19.8983 69.7996 19.9698C69.7996 20.184 69.8293 20.3894 69.8887 20.5858C69.9541 20.7762 70.0462 20.9458 70.165 21.0946C70.2898 21.2375 70.4413 21.3506 70.6196 21.4339C70.8038 21.5172 71.0118 21.5589 71.2435 21.5589C72.0219 21.5589 72.7736 21.294 73.4985 20.7643C74.2234 20.2346 74.9454 19.3954 75.6644 18.2468L75.9674 18.5146C75.5753 19.1693 75.1771 19.7228 74.7731 20.1751C74.369 20.6215 73.965 20.9845 73.5609 21.2643C73.1628 21.544 72.7706 21.7463 72.3844 21.8713C71.9981 21.9963 71.6297 22.0588 71.2792 22.0588C71.0236 22.0588 70.7533 22.0231 70.4681 21.9517C70.1828 21.8803 69.9184 21.7612 69.6748 21.5946C69.4371 21.4279 69.241 21.2047 69.0865 20.925C68.9261 20.6453 68.8459 20.2971 68.8459 19.8805C68.8459 19.4341 68.9231 19.0056 69.0776 18.5949C69.2262 18.1783 69.4223 17.7914 69.6659 17.4343C69.9095 17.0772 70.1888 16.7529 70.5037 16.4612C70.8186 16.1637 71.1365 15.9107 71.4574 15.7024C71.7842 15.4941 72.1021 15.3334 72.4111 15.2203C72.7201 15.1013 72.9934 15.0418 73.2311 15.0418C73.3856 15.0418 73.5431 15.0656 73.7035 15.1132C73.8639 15.1608 74.0066 15.2352 74.1313 15.3364C74.2621 15.4376 74.366 15.5715 74.4433 15.7381C74.5265 15.9048 74.5681 16.1041 74.5681 16.3363C74.5681 16.6517 74.4938 16.9493 74.3453 17.229C74.2026 17.5028 74.0095 17.7587 73.7659 17.9968C73.5223 18.2289 73.24 18.4402 72.9192 18.6306C72.5983 18.8151 72.2626 18.9729 71.912 19.1038C71.5614 19.2347 71.2079 19.3389 70.8513 19.4163C70.4948 19.4936 70.1561 19.5353 69.8352 19.5412ZM69.9065 19.1574C70.3047 19.1157 70.679 19.0324 71.0296 18.9074C71.3802 18.7824 71.701 18.6306 71.9922 18.4521C72.2834 18.2676 72.5418 18.0682 72.7676 17.8539C72.9994 17.6397 73.1925 17.4224 73.347 17.2022C73.5015 16.982 73.6203 16.7707 73.7035 16.5684C73.7867 16.366 73.8283 16.1845 73.8283 16.0238C73.8283 15.8631 73.7837 15.7351 73.6946 15.6399C73.6114 15.5447 73.5104 15.4971 73.3916 15.4971C73.1301 15.4971 72.836 15.5923 72.5092 15.7828C72.1823 15.9673 71.8555 16.2262 71.5287 16.5595C71.2019 16.8868 70.8929 17.2737 70.6018 17.72C70.3165 18.1664 70.0848 18.6455 69.9065 19.1574Z" fill="#FFD85D"/>
<path d="M67.0276 14.5686C66.9979 14.6222 66.9593 14.6817 66.9117 14.7472C66.8642 14.8067 66.8167 14.8781 66.7691 14.9614C66.7275 15.0388 66.6889 15.131 66.6533 15.2382C66.6235 15.3453 66.6087 15.4733 66.6087 15.6221C66.6087 15.747 66.6384 15.9167 66.6978 16.1309C66.7632 16.3452 66.8315 16.5922 66.9028 16.8719C66.9741 17.1457 67.0395 17.4463 67.0989 17.7736C67.1643 18.095 67.1969 18.4283 67.1969 18.7735C67.1969 19.2794 67.1286 19.7257 66.9919 20.1126C66.8553 20.4995 66.674 20.8298 66.4483 21.1036C66.9117 20.8536 67.3663 20.4965 67.812 20.0323C68.2576 19.5621 68.7062 18.9669 69.1578 18.2468L69.4609 18.5146C69.2054 18.9371 68.9142 19.3567 68.5874 19.7734C68.2665 20.184 67.913 20.556 67.5267 20.8893C67.1405 21.2166 66.7246 21.4815 66.2789 21.6839C65.8333 21.8922 65.3609 21.9963 64.8617 21.9963C64.4161 21.9963 64.0417 21.8892 63.7387 21.6749C63.4297 21.4666 63.2395 21.1512 63.1682 20.7286L63.4891 20.6661C63.4891 20.7018 63.5069 20.7613 63.5426 20.8447C63.5723 20.922 63.6228 20.9994 63.6941 21.0768C63.7654 21.1542 63.8635 21.2226 63.9882 21.2821C64.1071 21.3416 64.2556 21.3714 64.4339 21.3714C64.6716 21.3714 64.8825 21.3178 65.0667 21.2107C65.2509 21.0976 65.4114 20.9518 65.548 20.7732C65.6847 20.5947 65.8006 20.3923 65.8956 20.1662C65.9907 19.9341 66.065 19.696 66.1185 19.452C66.1779 19.208 66.2195 18.9699 66.2433 18.7378C66.267 18.5057 66.2789 18.2944 66.2789 18.1039C66.2789 17.9135 66.27 17.7022 66.2522 17.4701C66.2403 17.2379 66.2254 17.0177 66.2076 16.8094C66.1898 16.5952 66.1719 16.4107 66.1541 16.2559C66.1422 16.0952 66.1363 15.9911 66.1363 15.9435V15.9256C66.059 16.0089 65.9669 16.1309 65.86 16.2916C65.753 16.4523 65.6372 16.6279 65.5124 16.8183C65.3935 17.0088 65.2717 17.2022 65.1469 17.3986C65.0281 17.595 64.9182 17.7736 64.8172 17.9343C64.7221 18.095 64.6419 18.2289 64.5765 18.336C64.5171 18.4372 64.4874 18.4908 64.4874 18.4967L64.1665 18.2468C64.1724 18.2408 64.2467 18.1128 64.3893 17.8629C64.5319 17.6129 64.7191 17.2975 64.9509 16.9166C65.1885 16.5297 65.4559 16.1041 65.753 15.6399C66.0501 15.1697 66.3562 14.7144 66.6711 14.274L67.0276 14.5686Z" fill="#FFD85D"/>
<path d="M62.4463 16.9433C62.4463 17.1993 62.4017 17.4611 62.3126 17.729C62.2235 17.9908 62.1106 18.2557 61.9739 18.5235C61.8372 18.7854 61.6916 19.0443 61.5371 19.3002C61.3827 19.5561 61.2371 19.8031 61.1004 20.0412C60.9637 20.2793 60.8508 20.5084 60.7617 20.7286C60.6726 20.9429 60.628 21.1393 60.628 21.3178C60.628 21.4547 60.6577 21.547 60.7171 21.5946C60.7766 21.6422 60.8419 21.666 60.9132 21.666C61.139 21.666 61.3916 21.5559 61.6708 21.3357C61.9501 21.1095 62.2324 20.8268 62.5176 20.4876C62.8087 20.1483 63.0969 19.7793 63.3822 19.3806C63.6674 18.9818 63.9258 18.6039 64.1576 18.2468L64.4785 18.4967C64.4309 18.5681 64.3448 18.711 64.22 18.9252C64.0952 19.1336 63.9407 19.3746 63.7565 19.6484C63.5723 19.9162 63.3643 20.1989 63.1326 20.4965C62.9068 20.7881 62.6632 21.0589 62.4017 21.3089C62.1403 21.5529 61.8699 21.7553 61.5906 21.916C61.3173 22.0767 61.041 22.157 60.7617 22.157C60.6013 22.157 60.4557 22.1302 60.325 22.0767C60.1942 22.0231 60.0813 21.9487 59.9863 21.8535C59.8971 21.7583 59.8258 21.6481 59.7724 21.5232C59.7189 21.3922 59.6921 21.2553 59.6921 21.1125C59.6921 20.8804 59.7426 20.6304 59.8437 20.3626C59.9506 20.0888 60.0813 19.8091 60.2358 19.5234C60.3903 19.2377 60.5597 18.952 60.7439 18.6663C60.9281 18.3747 61.0974 18.098 61.2519 17.8361C61.4064 17.5742 61.5342 17.3332 61.6352 17.113C61.7421 16.8868 61.7956 16.6934 61.7956 16.5327C61.7956 16.3482 61.7451 16.1934 61.6441 16.0684C61.549 15.9435 61.4124 15.881 61.2341 15.881C61.044 15.881 60.8241 15.9613 60.5745 16.122C60.325 16.2767 60.0457 16.5059 59.7367 16.8094C59.4277 17.113 59.089 17.4879 58.7206 17.9343C58.3582 18.3747 57.963 18.8776 57.5352 19.443C57.2916 19.7704 57.0539 20.0858 56.8221 20.3894C56.7211 20.5203 56.6201 20.6542 56.5191 20.7911C56.4181 20.928 56.3171 21.0649 56.216 21.2018C56.115 21.3327 56.02 21.4577 55.9308 21.5767C55.8417 21.7017 55.7615 21.8088 55.6902 21.8981L54.9058 21.5767L55.9487 20.1394C56.0972 19.937 56.2487 19.7198 56.4032 19.4877C56.5577 19.2556 56.7092 19.0175 56.8578 18.7735C57.0123 18.5235 57.1579 18.2735 57.2945 18.0236C57.4312 17.7736 57.5589 17.5296 57.6778 17.2915C57.8501 16.9344 57.9689 16.6398 58.0343 16.4077C58.0997 16.1696 58.1324 15.9792 58.1324 15.8363C58.1324 15.6756 58.1026 15.5715 58.0432 15.5239C57.9838 15.4703 57.9006 15.4435 57.7937 15.4435C57.6808 15.4435 57.55 15.503 57.4015 15.6221C57.2589 15.7351 57.1103 15.8839 56.9558 16.0684C56.8013 16.247 56.6439 16.4523 56.4834 16.6844C56.3289 16.9106 56.1804 17.1368 56.0378 17.3629C55.8952 17.5891 55.7615 17.8034 55.6367 18.0057C55.5119 18.2081 55.4079 18.3717 55.3247 18.4967L55.0039 18.2468C55.3069 17.7706 55.5802 17.3361 55.8239 16.9433C56.0734 16.5446 56.3111 16.2023 56.5369 15.9167C56.7687 15.631 56.9915 15.4108 57.2054 15.256C57.4253 15.0953 57.657 15.015 57.9006 15.015C58.0313 15.015 58.1561 15.0418 58.275 15.0953C58.3997 15.1489 58.5067 15.2292 58.5958 15.3364C58.6909 15.4376 58.7652 15.5625 58.8187 15.7113C58.8721 15.8601 58.8989 16.0327 58.8989 16.2291C58.8989 16.3839 58.8811 16.5446 58.8454 16.7112C59.1068 16.4553 59.3505 16.244 59.5763 16.0774C59.8021 15.9107 60.01 15.7798 60.2002 15.6846C60.3903 15.5834 60.5656 15.512 60.7261 15.4703C60.8865 15.4286 61.0321 15.4078 61.1628 15.4078C61.2757 15.4078 61.4064 15.4286 61.555 15.4703C61.7035 15.512 61.8432 15.5893 61.9739 15.7024C62.1046 15.8155 62.2145 15.9732 62.3037 16.1756C62.3987 16.372 62.4463 16.6279 62.4463 16.9433Z" fill="#FFD85D"/>
<path d="M49.1747 19.5412C49.1629 19.6127 49.1539 19.6841 49.148 19.7555C49.1421 19.8269 49.1391 19.8983 49.1391 19.9698C49.1391 20.184 49.1688 20.3894 49.2282 20.5858C49.2936 20.7762 49.3857 20.9458 49.5045 21.0946C49.6293 21.2375 49.7808 21.3506 49.9591 21.4339C50.1433 21.5172 50.3513 21.5589 50.583 21.5589C51.3614 21.5589 52.1131 21.294 52.838 20.7643C53.5629 20.2346 54.2849 19.3954 55.0039 18.2468L55.3069 18.5146C54.9148 19.1693 54.5166 19.7228 54.1126 20.1751C53.7085 20.6215 53.3045 20.9845 52.9004 21.2643C52.5023 21.544 52.1101 21.7463 51.7239 21.8713C51.3377 21.9963 50.9692 22.0588 50.6187 22.0588C50.3632 22.0588 50.0928 22.0231 49.8076 21.9517C49.5224 21.8803 49.2579 21.7612 49.0143 21.5946C48.7766 21.4279 48.5805 21.2047 48.426 20.925C48.2656 20.6453 48.1854 20.2971 48.1854 19.8805C48.1854 19.4341 48.2626 19.0056 48.4171 18.5949C48.5657 18.1783 48.7618 17.7914 49.0054 17.4343C49.249 17.0772 49.5283 16.7529 49.8432 16.4612C50.1582 16.1637 50.4761 15.9107 50.7969 15.7024C51.1237 15.4941 51.4416 15.3334 51.7506 15.2203C52.0596 15.1013 52.3329 15.0418 52.5706 15.0418C52.7251 15.0418 52.8826 15.0656 53.043 15.1132C53.2035 15.1608 53.3461 15.2352 53.4708 15.3364C53.6016 15.4376 53.7056 15.5715 53.7828 15.7381C53.866 15.9048 53.9076 16.1041 53.9076 16.3363C53.9076 16.6517 53.8333 16.9493 53.6848 17.229C53.5422 17.5028 53.349 17.7587 53.1054 17.9968C52.8618 18.2289 52.5795 18.4402 52.2587 18.6306C51.9378 18.8151 51.6021 18.9729 51.2515 19.1038C50.9009 19.2347 50.5474 19.3389 50.1908 19.4163C49.8343 19.4936 49.4956 19.5353 49.1747 19.5412ZM49.246 19.1574C49.6442 19.1157 50.0185 19.0324 50.3691 18.9074C50.7197 18.7824 51.0405 18.6306 51.3317 18.4521C51.6229 18.2676 51.8813 18.0682 52.1071 17.8539C52.3389 17.6397 52.532 17.4224 52.6865 17.2022C52.841 16.982 52.9598 16.7707 53.043 16.5684C53.1262 16.366 53.1678 16.1845 53.1678 16.0238C53.1678 15.8631 53.1232 15.7351 53.0341 15.6399C52.9509 15.5447 52.8499 15.4971 52.7311 15.4971C52.4696 15.4971 52.1755 15.5923 51.8487 15.7828C51.5219 15.9673 51.195 16.2262 50.8682 16.5595C50.5414 16.8868 50.2324 17.2737 49.9413 17.72C49.6561 18.1664 49.4243 18.6455 49.246 19.1574Z" fill="#FFD85D"/>
<path d="M39.8794 23.419C39.3857 23.419 38.7714 23.0789 38.0368 22.3987C37.5189 22.3015 37.0733 22.1696 36.7 22.003C36.3387 21.8503 36.0376 21.6629 35.7968 21.4408C35.4595 21.1077 35.1645 20.6634 34.9116 20.1082C34.6587 19.5529 34.5322 19.0184 34.5322 18.5048C34.5322 18.1161 34.6105 17.769 34.7671 17.4636C35.1284 16.7279 35.586 16.36 36.14 16.36C36.5615 16.36 36.8084 16.7695 36.8807 17.5886C36.965 18.3521 37.0312 18.9629 37.0794 19.421C37.1396 19.8652 37.1878 20.1567 37.2239 20.2956C37.4045 20.9758 37.7116 21.5519 38.1452 22.0239C38.651 22.1488 39.199 22.2113 39.7891 22.2113C41.0898 22.2113 42.3363 21.9267 43.5285 21.3575C44.0344 21.1077 44.5281 20.7814 45.0099 20.3789C45.4916 19.9763 45.889 19.5321 46.2021 19.0462C46.5153 18.5603 46.6718 18.0883 46.6718 17.6302C46.6718 16.9778 46.172 16.4711 45.1724 16.1101L41.993 15.2772C41.3427 15.1106 40.8188 14.8191 40.4214 14.4027C40.036 13.9723 39.8433 13.4865 39.8433 12.9451C39.8433 12.1121 40.2949 11.2792 41.1982 10.4463C41.6558 10.016 42.1917 9.65503 42.8059 9.3635C43.4201 9.0581 44.0645 8.82905 44.7389 8.67635C45.4254 8.50976 46.0817 8.42647 46.708 8.42647C47.5992 8.42647 48.3579 8.58611 48.9841 8.9054C49.6224 9.22468 50.0199 9.68973 50.1764 10.3005C50.2126 10.4394 50.2306 10.5921 50.2306 10.7586C50.2306 11.6054 49.8633 12.1954 49.1287 12.5286C48.6831 12.7368 48.3037 12.8409 47.9906 12.8409C47.7979 12.8409 47.6473 12.7993 47.5389 12.716C47.5149 12.6882 47.5028 12.6535 47.5028 12.6119C47.5028 12.5147 47.6714 12.4592 48.0086 12.4453C48.2134 12.4314 48.382 12.4106 48.5145 12.3828C48.6469 12.3551 48.7433 12.3273 48.8035 12.2995C49.2611 12.0219 49.49 11.6124 49.49 11.071C49.49 10.7933 49.4237 10.5018 49.2912 10.1964C48.9179 9.40515 47.9846 9.00951 46.4912 9.00951C45.9492 9.00951 45.3892 9.07892 44.8111 9.21774C44.2331 9.34268 43.6851 9.53703 43.1672 9.80079C42.6494 10.0507 42.2098 10.3699 41.8485 10.7586C41.2223 11.425 40.9091 12.0219 40.9091 12.5494C40.9091 12.952 41.0777 13.3129 41.4149 13.6322C41.7642 13.9376 42.2881 14.1667 42.9866 14.3194L45.1183 14.7775C45.9372 14.9579 46.5996 15.2286 47.1054 15.5896C47.6112 15.9366 47.8641 16.4711 47.8641 17.1929C47.8641 17.8315 47.7256 18.4284 47.4486 18.9837C47.1716 19.539 46.7983 20.0387 46.3286 20.483C45.871 20.9133 45.3471 21.2742 44.757 21.5658C43.4201 22.246 41.8425 22.5861 40.0239 22.5861C39.7951 22.5861 39.5663 22.5791 39.3375 22.5653C39.1087 22.5514 38.8859 22.5306 38.6691 22.5028C38.8377 22.6139 39.0484 22.7249 39.3013 22.836C39.5663 22.947 39.8674 23.0511 40.2046 23.1483C40.2407 23.1622 40.2588 23.19 40.2588 23.2316C40.2588 23.3565 40.1323 23.419 39.8794 23.419ZM37.4949 21.8156C37.1697 21.3992 36.9168 20.9688 36.7361 20.5246C36.4712 19.8305 36.2725 18.9768 36.14 17.9634C36.0436 17.2276 35.9413 16.8598 35.8329 16.8598C35.7365 16.8598 35.6041 16.9431 35.4355 17.1096C35.2789 17.2762 35.2006 17.6302 35.2006 18.1716C35.2006 19.2267 35.5258 20.1429 36.1761 20.9203C36.5013 21.3089 36.9409 21.6074 37.4949 21.8156Z" fill="#FFD85D"/>
<path d="M119.05 28.2744H120.829V28.5222H119.05V28.2744ZM119.102 29.7962H121.105V30.0441H118.814V26.7986H121.036V27.0522H119.102V29.7962Z" fill="#F0EADB"/>
<path d="M113.409 30.0441V26.7986H114.612C114.888 26.7986 115.124 26.8428 115.32 26.9312C115.52 27.0196 115.673 27.1445 115.781 27.3059C115.888 27.4673 115.942 27.6652 115.942 27.8997C115.942 28.1264 115.888 28.3224 115.781 28.4877C115.673 28.6529 115.52 28.7797 115.32 28.8681C115.124 28.9527 114.888 28.9949 114.612 28.9949H113.571L113.697 28.8624V30.0441H113.409ZM115.671 30.0441L114.819 28.8681H115.142L115.994 30.0441H115.671ZM113.697 28.8854L113.588 28.7528H114.601C114.942 28.7528 115.201 28.6779 115.378 28.528C115.558 28.3781 115.648 28.1687 115.648 27.8997C115.648 27.6268 115.558 27.4173 115.378 27.2713C115.201 27.1253 114.942 27.0522 114.601 27.0522H113.588L113.697 26.9139V28.8854Z" fill="#F0EADB"/>
<path d="M107.596 30.0441L109.099 26.7986H109.386L110.894 30.0441H110.595L109.191 26.9715H109.3L107.89 30.0441H107.596ZM108.183 29.1448L108.276 28.9027H110.181L110.273 29.1448H108.183Z" fill="#F0EADB"/>
<path d="M104.413 30.0729C104.087 30.0729 103.793 30.0018 103.532 29.8597C103.275 29.7136 103.072 29.5157 102.922 29.2659C102.773 29.0161 102.698 28.7336 102.698 28.4185C102.698 28.1033 102.773 27.8228 102.922 27.5768C103.072 27.327 103.275 27.131 103.532 26.9888C103.793 26.8428 104.087 26.7698 104.413 26.7698C104.655 26.7698 104.875 26.8082 105.075 26.8851C105.278 26.9619 105.453 27.0753 105.598 27.2252L105.414 27.4212C105.276 27.2828 105.123 27.1829 104.954 27.1214C104.789 27.0599 104.61 27.0292 104.419 27.0292C104.146 27.0292 103.902 27.0907 103.688 27.2137C103.473 27.3328 103.302 27.498 103.175 27.7094C103.053 27.9169 102.991 28.1533 102.991 28.4185C102.991 28.6837 103.053 28.9219 103.175 29.1333C103.302 29.3447 103.473 29.5118 103.688 29.6348C103.902 29.754 104.146 29.8135 104.419 29.8135C104.61 29.8135 104.789 29.7828 104.954 29.7213C105.123 29.6598 105.276 29.5599 105.414 29.4215L105.598 29.6118C105.453 29.7655 105.278 29.8808 105.075 29.9577C104.871 30.0345 104.651 30.0729 104.413 30.0729Z" fill="#F0EADB"/>
<path d="M95.5335 30.0441V28.8739L95.5911 29.0699L94.1868 26.7986H94.5033L95.758 28.8162H95.6083L96.863 26.7986H97.1681L95.7637 29.0699L95.8213 28.8739V30.0441H95.5335Z" fill="#F0EADB"/>
<path d="M90.8032 30.0441V27.0522H89.6292V26.7986H92.2651V27.0522H91.091V30.0441H90.8032Z" fill="#F0EADB"/>
<path d="M85.826 30.0729C85.5497 30.0729 85.3119 30.0211 85.1123 29.9173C84.9128 29.8097 84.7593 29.6521 84.6519 29.4446C84.5445 29.2332 84.4908 28.9757 84.4908 28.6721V26.7986H84.7785V28.6606C84.7785 29.0487 84.8687 29.3389 85.049 29.5311C85.2332 29.7194 85.4922 29.8135 85.826 29.8135C86.1598 29.8135 86.4169 29.7194 86.5972 29.5311C86.7776 29.3389 86.8677 29.0487 86.8677 28.6606V26.7986H87.1555V28.6721C87.1555 28.9757 87.1018 29.2332 86.9943 29.4446C86.8907 29.6521 86.7392 29.8097 86.5397 29.9173C86.3401 30.0211 86.1023 30.0729 85.826 30.0729Z" fill="#F0EADB"/>
<path d="M78.7966 30.0441L80.2988 26.7986H80.5866L82.0945 30.0441H81.7952L80.3909 26.9715H80.5002L79.0902 30.0441H78.7966ZM79.3837 29.1448L79.4758 28.9027H81.3808L81.4729 29.1448H79.3837Z" fill="#F0EADB"/>
<path d="M74.5637 28.2744H76.3421V28.5222H74.5637V28.2744ZM74.6155 29.7962H76.6183V30.0441H74.3277V26.7986H76.5493V27.0522H74.6155V29.7962Z" fill="#F0EADB"/>
<path d="M68.8439 30.0441V26.7986H70.231C70.5916 26.7986 70.8717 26.8716 71.0713 27.0176C71.2746 27.1598 71.3763 27.3635 71.3763 27.6287C71.3763 27.8939 71.2842 28.0957 71.1 28.234C70.9159 28.3724 70.6761 28.4415 70.3806 28.4415L70.4612 28.3378C70.8142 28.3378 71.0847 28.4108 71.2727 28.5568C71.4607 28.699 71.5547 28.9085 71.5547 29.1852C71.5547 29.458 71.4511 29.6694 71.2439 29.8193C71.0406 29.9692 70.7336 30.0441 70.3231 30.0441H68.8439ZM69.1317 29.8078H70.3231C70.6262 29.8078 70.8583 29.7559 71.0195 29.6521C71.1806 29.5484 71.2612 29.385 71.2612 29.1621C71.2612 28.9354 71.1806 28.772 71.0195 28.6721C70.8583 28.5684 70.6262 28.5165 70.3231 28.5165H69.0799V28.2859H70.2195C70.4957 28.2859 70.7087 28.2321 70.8583 28.1245C71.0118 28.0169 71.0885 27.8612 71.0885 27.6575C71.0885 27.45 71.0118 27.2944 70.8583 27.1906C70.7087 27.0868 70.4957 27.0349 70.2195 27.0349H69.1317V29.8078Z" fill="#F0EADB"/>
<path d="M59.6805 30.0441V26.7986H59.9222L62.2186 29.6867H62.0978V26.7986H62.3913V30.0441H62.1496L59.8532 27.156H59.9683V30.0441H59.6805Z" fill="#F0EADB"/>
<path d="M54.8318 28.2744H56.6102V28.5222H54.8318V28.2744ZM54.8836 29.7962H56.8864V30.0441H54.5958V26.7986H56.8174V27.0522H54.8836V29.7962Z" fill="#F0EADB"/>
<path d="M48.0947 30.0441V26.7986H48.3422L49.8443 29.3524H49.7292L51.2141 26.7986H51.4673V30.0441H51.1853V27.2425H51.2429L49.8501 29.6175H49.712L48.3019 27.2425H48.3767V30.0441H48.0947Z" fill="#F0EADB"/>
<path d="M43.5985 30.0729C43.2685 30.0729 42.9731 30.0018 42.7122 29.8597C42.4551 29.7136 42.2517 29.5157 42.1021 29.2659C41.9524 29.0161 41.8776 28.7336 41.8776 28.4185C41.8776 28.1033 41.9524 27.8228 42.1021 27.5768C42.2517 27.327 42.4551 27.131 42.7122 26.9888C42.9731 26.8428 43.2666 26.7698 43.5927 26.7698C43.9227 26.7698 44.2162 26.8428 44.4733 26.9888C44.7342 27.131 44.9376 27.327 45.0834 27.5768C45.233 27.8228 45.3078 28.1033 45.3078 28.4185C45.3078 28.7336 45.233 29.0161 45.0834 29.2659C44.9376 29.5157 44.7342 29.7136 44.4733 29.8597C44.2162 30.0018 43.9246 30.0729 43.5985 30.0729ZM43.5927 29.8135C43.869 29.8135 44.1126 29.754 44.3237 29.6348C44.5385 29.5118 44.7073 29.3466 44.8301 29.1391C44.9567 28.9277 45.0201 28.6894 45.0201 28.4242C45.0201 28.1552 44.9567 27.9169 44.8301 27.7094C44.7073 27.498 44.5385 27.3328 44.3237 27.2137C44.1126 27.0907 43.869 27.0292 43.5927 27.0292C43.3241 27.0292 43.0824 27.0907 42.8675 27.2137C42.6527 27.3328 42.4819 27.498 42.3553 27.7094C42.2325 27.9169 42.1711 28.1552 42.1711 28.4242C42.1711 28.6894 42.2325 28.9277 42.3553 29.1391C42.4819 29.3466 42.6527 29.5118 42.8675 29.6348C43.0824 29.754 43.3241 29.8135 43.5927 29.8135Z" fill="#F0EADB"/>
<path d="M35.8962 30.0441L34.7854 26.7986H35.0905L36.138 29.8827H35.9826L37.0646 26.7986H37.3408L38.4113 29.8827H38.2674L39.3207 26.7986H39.6084L38.4977 30.0441H38.1926L37.1567 27.0926H37.2372L36.207 30.0441H35.8962Z" fill="#F0EADB"/>
</svg>
