<svg width="142" height="51" viewBox="0 0 142 51" fill="none" xmlns="http://www.w3.org/2000/svg">
<path d="M17.3096 25.9245C20.1052 22.8708 18.7074 19.1231 16.471 17.1798C14.0948 19.8171 14.9334 24.3977 17.3096 25.9245Z" fill="#FFE89E"/>
<path d="M10.0412 23.7036C10.0412 18.5678 5.14907 17.5962 3.1922 17.5962C3.1922 20.5111 5.84795 24.1201 10.0412 23.7036Z" fill="#FFE89E"/>
<path d="M10.0412 27.5902C9.62192 30.2275 4.86952 30.3663 2.07399 28.1454C4.45019 25.5081 8.64348 25.2305 10.0412 27.5902Z" fill="#FFE89E"/>
<path d="M55.7482 25.6469C52.9526 22.5932 54.3504 18.8455 56.5868 16.9022C58.963 19.5395 58.1244 24.1201 55.7482 25.6469Z" fill="#FFE89E"/>
<path d="M63.0165 23.426C63.0165 18.2902 67.9087 17.3186 69.8656 17.3186C69.8656 20.2335 67.2098 23.8424 63.0165 23.426Z" fill="#FFE89E"/>
<path d="M63.0165 27.3126C63.4359 29.9499 68.1883 30.0887 70.9838 27.8678C68.6076 25.2305 64.4143 24.9529 63.0165 27.3126Z" fill="#FFE89E"/>
<path d="M36.1796 42.1648C30.309 47.5782 14.9335 50.4931 14.0949 42.1648C13.0499 31.7876 32.4056 37.723 36.1796 42.1648Z" fill="#FFE89E"/>
<path d="M36.1796 42.1648C47.2218 50.7706 57.5655 46.4679 58.5438 42.1648C59.5221 37.8617 52.5333 32.3095 36.1796 42.1648Z" fill="#FFE89E"/>
<path fill-rule="evenodd" clip-rule="evenodd" d="M24.7178 33.9714C26.3019 33.8802 29.6379 31.8377 30.3088 24.3977C30.4953 27.1738 31.4271 32.3096 36.1796 34.6693C40.6374 32.8874 42.2399 26.1767 42.392 24.312C43.1847 29.6965 46.3651 32.9832 47.8974 33.9714C48.7334 33.6429 49.5821 33.3471 50.4367 33.0867C50.1843 33.1582 49.842 32.9576 49.4582 32.5462C47.9287 30.9069 45.7403 25.9213 45.9638 21.4828C46.1901 16.9891 43.008 16.4619 41.755 16.2543C41.6533 16.2375 41.5644 16.2227 41.491 16.2082C39.1148 15.7362 38.2761 12.8768 38.6954 11.6276C42.3296 7.46341 41.491 1.07837 36.3192 1.07837C31.1475 1.07837 30.7282 8.99027 34.3624 11.6276C34.9215 13.7097 32.685 15.9306 30.3088 16.2082C28.3654 16.4352 26.3951 18.1502 26.3951 21.4828C26.3951 29.1171 24.1587 32.8816 21.5029 32.8816C22.5763 33.1791 23.6517 33.5421 24.7178 33.9714ZM42.392 24.312C42.3692 24.1572 42.3484 24.0007 42.3296 23.8424C42.397 23.7755 42.4211 23.9549 42.392 24.312ZM36.1796 34.6693C35.1055 34.0487 33.4282 32.1708 34.127 31.1991C35.2452 31.1991 35.8044 32.4484 36.1796 34.6693ZM36.1796 34.6693C37.6214 33.6976 38.4601 32.1708 37.901 31.1991C36.6449 31.4763 36.5037 32.4455 36.181 34.6593L36.1796 34.6693Z" fill="#FFE89E"/>
<path d="M12.5573 49.5215C8.59698 50.0767 -0.581812 49.2437 1.23532 39.805C2.59216 32.7571 11.97 30.2391 21.5029 32.8816M36.1796 42.1648C47.2218 50.7706 57.5655 46.4679 58.5438 42.1648C59.5221 37.8617 52.5333 32.3095 36.1796 42.1648ZM36.1796 42.1648C30.309 47.5782 14.9335 50.4931 14.0949 42.1648C13.0499 31.7876 32.4056 37.723 36.1796 42.1648ZM36.1796 42.1648C32.957 38.372 28.909 35.6591 24.7178 33.9714M36.1796 42.1648C38.8798 38.7106 43.1879 35.8219 47.8974 33.9714M54.0708 48.6885C64.0882 52.2974 73.7794 47.5782 71.5429 39.805C69.1627 31.5322 59.4701 30.3339 50.4367 33.0867M24.7178 33.9714C26.3019 33.8802 29.6379 31.8377 30.3088 24.3977C30.4953 27.1738 31.4271 32.3096 36.1796 34.6693M24.7178 33.9714C23.6517 33.5421 22.5763 33.1791 21.5029 32.8816M21.5029 32.8816C24.1587 32.8816 26.3951 29.1171 26.3951 21.4828C26.3951 18.1502 28.3654 16.4352 30.3088 16.2082C32.685 15.9306 34.9215 13.7097 34.3624 11.6276C30.7282 8.99027 31.1475 1.07837 36.3192 1.07837C41.491 1.07837 42.3296 7.46341 38.6954 11.6276C38.2761 12.8768 39.1148 15.7362 41.491 16.2082C41.5644 16.2227 41.6533 16.2375 41.755 16.2543C43.008 16.4619 46.1901 16.9891 45.9638 21.4828C45.7403 25.9213 47.9287 30.9069 49.4582 32.5462M21.5029 32.8816C20.832 31.6735 19.6642 30.9069 19.1642 30.6747M50.4367 33.0867C49.5821 33.3471 48.7334 33.6429 47.8974 33.9714M50.4367 33.0867C50.1843 33.1582 49.842 32.9576 49.4582 32.5462M47.8974 33.9714C46.3651 32.9832 43.1847 29.6965 42.392 24.312M49.4582 32.5462C50.4756 32.0948 52.0421 31.3809 53.7913 30.4515M63.0165 23.426C63.0165 18.2902 67.9087 17.3186 69.8656 17.3186C69.8656 20.2335 67.2098 23.8424 63.0165 23.426ZM63.0165 23.426C61.5413 25.3794 59.3 27.1307 57.0062 28.5888M53.7913 30.4515C53.8222 30.4387 53.8565 30.4205 53.8936 30.397M53.7913 30.4515C53.8253 30.4335 53.8594 30.4153 53.8936 30.397M53.8936 30.397C54.4727 30.0315 55.7482 28.3861 55.7482 25.6469M53.8936 30.397C54.8966 29.8614 55.9569 29.2558 57.0062 28.5888M55.7482 25.6469C52.9526 22.5932 54.3504 18.8455 56.5868 16.9022C58.963 19.5395 58.1244 24.1201 55.7482 25.6469ZM57.0062 28.5888C58.5903 27.738 60.0812 29.6723 63.0165 27.3126M63.0165 27.3126C63.4359 29.9499 68.1883 30.0887 70.9838 27.8678C68.6076 25.2305 64.4143 24.9529 63.0165 27.3126ZM10.0412 23.7036C10.0412 18.5678 5.14907 17.5962 3.1922 17.5962C3.1922 20.5111 5.84795 24.1201 10.0412 23.7036ZM10.0412 23.7036C11.5165 25.657 13.7578 27.4083 16.0516 28.8664M19.1642 30.6747C18.5851 30.3091 17.3096 28.6638 17.3096 25.9245M19.1642 30.6747C18.1612 30.139 17.1009 29.5334 16.0516 28.8664M17.3096 25.9245C20.1052 22.8708 18.7074 19.1231 16.471 17.1798C14.0948 19.8171 14.9334 24.3977 17.3096 25.9245ZM16.0516 28.8664C14.4675 28.0156 12.9766 29.9499 10.0412 27.5902M10.0412 27.5902C9.62192 30.2275 4.86952 30.3663 2.07399 28.1454C4.45019 25.5081 8.64348 25.2305 10.0412 27.5902ZM36.1796 34.6693C40.6374 32.8874 42.2399 26.1767 42.392 24.312M36.1796 34.6693C35.1055 34.0487 33.4282 32.1708 34.127 31.1991C35.2452 31.1991 35.8044 32.4484 36.1796 34.6693ZM36.1796 34.6693C37.6214 33.6976 38.4601 32.1708 37.901 31.1991C36.6449 31.4763 36.5037 32.4455 36.181 34.6593M36.1796 34.6693L36.181 34.6593M36.1796 34.6693C36.1801 34.6659 36.1805 34.6626 36.181 34.6593M42.392 24.312C42.3692 24.1572 42.3484 24.0007 42.3296 23.8424C42.397 23.7755 42.4211 23.9549 42.392 24.312Z" stroke="#343B22"/>
<path d="M133.45 25.9982C132.722 26.3769 131.955 26.5662 131.148 26.5662C130.467 26.5662 129.834 26.4006 129.248 26.0692C128.663 25.7378 128.267 25.2092 128.061 24.4834C127.966 24.152 127.919 23.8049 127.919 23.442C127.919 22.8424 128.022 22.227 128.228 21.5958C128.449 20.9489 128.734 20.3572 129.082 19.8207C129.62 18.9844 130.301 18.2901 131.124 17.7378C131.947 17.1856 132.857 16.9094 133.854 16.9094C134.598 16.9094 135.176 17.0988 135.587 17.4775C135.999 17.8562 136.204 18.298 136.204 18.8029C136.204 19.4025 135.999 19.9311 135.587 20.3887C135.191 20.8305 134.669 21.1698 134.02 21.4065C133.704 21.5169 133.363 21.6037 132.999 21.6668C132.651 21.7142 132.319 21.7378 132.002 21.7378C131.353 21.7378 130.855 21.6511 130.507 21.4775C130.206 22.2507 130.056 22.9607 130.056 23.6077C130.056 24.1915 130.19 24.6728 130.459 25.0515C130.728 25.4144 131.156 25.5958 131.741 25.5958C132.232 25.5958 132.715 25.4617 133.189 25.1935C133.68 24.9252 134.131 24.5939 134.543 24.1994C134.97 23.8049 135.326 23.4262 135.611 23.0633C135.832 22.795 136.022 22.5426 136.181 22.3059C136.339 22.0692 136.505 21.801 136.679 21.5011C136.853 21.1856 137.059 20.799 137.296 20.3414C137.36 20.2309 137.415 20.1757 137.463 20.1757C137.558 20.1757 137.605 20.3019 137.605 20.5544C137.605 20.6964 137.581 20.8542 137.534 21.0278C137.502 21.1856 137.439 21.3512 137.344 21.5248C137.122 21.9193 136.853 22.3532 136.537 22.8266C136.236 23.2842 135.927 23.726 135.611 24.152C135.326 24.5307 135.001 24.8779 134.637 25.1935C134.273 25.509 133.878 25.7773 133.45 25.9982ZM131.29 20.9568C131.369 21.0041 131.456 21.0357 131.551 21.0514C131.646 21.0672 131.741 21.0751 131.836 21.0751C132.153 21.0751 132.469 21.0041 132.786 20.8621C133.102 20.7043 133.371 20.5465 133.593 20.3887C133.957 20.1363 134.266 19.8365 134.519 19.4893C134.772 19.1422 134.914 18.7477 134.946 18.3059C134.962 18.1165 134.914 17.9587 134.804 17.8325C134.709 17.6905 134.535 17.6195 134.281 17.6195C134.155 17.6195 133.996 17.6432 133.807 17.6905C133.553 17.7536 133.3 17.872 133.047 18.0455C132.794 18.2191 132.548 18.4242 132.311 18.6609C132.232 18.7398 132.089 18.8976 131.884 19.1343C131.694 19.3552 131.512 19.6077 131.338 19.8917C131.163 20.1599 131.076 20.3966 131.076 20.6017C131.076 20.7753 131.148 20.8937 131.29 20.9568Z" fill="#FFE89E"/>
<path d="M121.867 26.8032C121.329 26.8032 120.822 26.7322 120.348 26.5902C119.873 26.4481 119.485 26.2272 119.184 25.9274C118.884 25.6276 118.733 25.2489 118.733 24.7913C118.733 24.4442 118.836 24.1049 119.042 23.7736C119.263 23.4422 119.572 23.2765 119.968 23.2765C120.142 23.2765 120.3 23.316 120.442 23.3949C120.585 23.4738 120.68 23.5763 120.727 23.7026C120.712 23.7184 120.672 23.7736 120.609 23.8683C120.545 23.9472 120.506 24.0024 120.49 24.0339C120.348 24.318 120.276 24.5783 120.276 24.815C120.276 25.1464 120.395 25.4146 120.632 25.6197C120.886 25.8249 121.21 25.9274 121.606 25.9274C122.128 25.9117 122.579 25.7302 122.959 25.3831C123.355 25.0201 123.552 24.5941 123.552 24.1049C123.552 23.8209 123.489 23.5527 123.363 23.3002C123.157 22.8742 122.88 22.5113 122.532 22.2115C122.199 21.8959 121.875 21.5803 121.558 21.2647C121.258 20.9491 121.036 20.5704 120.894 20.1286C120.83 19.9235 120.799 19.671 120.799 19.3712C120.799 19.0714 120.838 18.7795 120.917 18.4955C120.996 18.1957 121.115 17.9432 121.273 17.7381C121.495 17.4383 121.827 17.1621 122.27 16.9097C122.824 16.6099 123.473 16.46 124.217 16.46C124.708 16.46 125.143 16.5231 125.523 16.6493C125.808 16.744 126.053 16.9018 126.259 17.1227C126.48 17.3278 126.591 17.6039 126.591 17.9511C126.591 18.3456 126.465 18.7243 126.211 19.0872C125.974 19.4343 125.626 19.6473 125.167 19.7262C124.882 19.7578 124.629 19.7105 124.407 19.5842C124.186 19.4422 124.106 19.1819 124.17 18.8032C124.597 18.7085 124.906 18.5349 125.096 18.2824C125.191 18.1404 125.238 17.9984 125.238 17.8564C125.238 17.5882 125.127 17.4067 124.906 17.312C124.7 17.2016 124.502 17.1464 124.312 17.1464C124.075 17.1464 123.845 17.1779 123.624 17.241C123.418 17.2884 123.228 17.3752 123.054 17.5014C122.706 17.8012 122.532 18.1483 122.532 18.5428C122.532 18.6059 122.54 18.6769 122.555 18.7558C122.587 18.8347 122.611 18.9136 122.627 18.9925C122.706 19.1976 122.824 19.387 122.983 19.5606C123.141 19.7341 123.299 19.884 123.457 20.0103C123.853 20.2943 124.257 20.602 124.668 20.9333C125.096 21.2647 125.412 21.6671 125.618 22.1404C125.776 22.4718 125.855 22.8111 125.855 23.1582C125.855 23.6316 125.737 24.0655 125.499 24.46C125.262 24.8387 124.993 25.1385 124.692 25.3594C125.214 25.1385 125.721 24.7519 126.211 24.1996C126.718 23.6316 127.153 23.0714 127.517 22.5191C127.755 22.1562 127.968 21.817 128.158 21.5014C128.364 21.17 128.57 20.8071 128.775 20.4126C128.839 20.3022 128.894 20.247 128.942 20.247C129.036 20.247 129.084 20.3811 129.084 20.6493C129.084 20.7598 129.06 20.8939 129.013 21.0517C128.981 21.2095 128.926 21.3673 128.847 21.5251C128.562 21.9984 128.293 22.4402 128.039 22.8505C127.786 23.245 127.478 23.6789 127.114 24.1523C126.385 25.1148 125.61 25.8012 124.787 26.2115C123.964 26.6059 122.991 26.8032 121.867 26.8032Z" fill="#FFE89E"/>
<path d="M114.921 26.4717C114.383 26.4717 114.011 26.3139 113.806 25.9983C113.616 25.667 113.521 25.2883 113.521 24.8622C113.521 24.3415 113.624 23.7183 113.829 22.9924C114.035 22.2508 114.273 21.5092 114.542 20.7676C114.826 20.0102 115.08 19.3395 115.301 18.7557C115.365 18.6137 115.396 18.4638 115.396 18.306C115.396 18.1324 115.341 18.0062 115.23 17.9273C115.119 17.8484 114.977 17.809 114.803 17.809C114.55 17.809 114.265 17.8879 113.948 18.0457C113.457 18.2981 112.991 18.7005 112.547 19.2528C112.104 19.805 111.748 20.381 111.479 20.9806C111.178 21.6591 110.909 22.3376 110.672 23.0161C110.435 23.6946 110.245 24.2469 110.102 24.6729C110.007 24.9411 109.92 25.2173 109.841 25.5013C109.762 25.7853 109.683 26.0615 109.604 26.3297H107.301C107.301 26.3297 107.356 26.1325 107.467 25.738C107.562 25.3435 107.689 24.949 107.847 24.5545C108.116 23.8603 108.385 23.166 108.654 22.4717C108.939 21.7774 109.184 21.162 109.39 20.6255C109.453 20.4678 109.548 20.1758 109.675 19.7498C109.817 19.308 109.944 18.8504 110.055 18.377C110.181 17.9036 110.245 17.5171 110.245 17.2173C110.245 17.0437 110.221 16.9253 110.173 16.8622C110.316 16.8622 110.474 16.8622 110.648 16.8622C110.838 16.8464 111.012 16.8386 111.17 16.8386C111.392 16.8386 111.598 16.8464 111.788 16.8622C111.993 16.878 112.128 16.9175 112.191 16.9806C112.381 17.1226 112.476 17.3277 112.476 17.596C112.476 17.7853 112.437 17.9747 112.357 18.164C112.294 18.3534 112.247 18.5111 112.215 18.6374C112.437 18.4322 112.666 18.235 112.904 18.0457C113.141 17.8563 113.505 17.6117 113.996 17.3119C114.28 17.1384 114.637 16.9963 115.064 16.8859C115.491 16.7754 115.879 16.7202 116.227 16.7202C117.129 16.7202 117.58 17.1384 117.58 17.9747C117.58 18.1167 117.565 18.2745 117.533 18.448C117.517 18.6216 117.47 18.8109 117.39 19.0161C117.311 19.2685 117.185 19.6157 117.011 20.0575C116.837 20.4993 116.655 20.9727 116.465 21.4776C116.29 21.9668 116.14 22.4323 116.014 22.8741C115.887 23.3159 115.824 23.6709 115.824 23.9392C115.824 24.3179 115.966 24.5072 116.251 24.5072C116.504 24.5072 116.821 24.3494 117.201 24.0338C117.565 23.734 117.881 23.4106 118.15 23.0634C118.483 22.6532 118.783 22.2192 119.052 21.7616C119.337 21.2883 119.582 20.8543 119.788 20.4599C119.867 20.3336 119.923 20.2705 119.954 20.2705C120.049 20.2705 120.097 20.4046 120.097 20.6729C120.097 20.7991 120.073 20.949 120.026 21.1226C119.994 21.2804 119.939 21.4303 119.859 21.5723C119.638 21.951 119.377 22.3691 119.076 22.8267C118.775 23.2843 118.467 23.7261 118.15 24.1522C117.929 24.452 117.636 24.7833 117.272 25.1463C116.908 25.5092 116.52 25.8248 116.108 26.093C115.697 26.3455 115.301 26.4717 114.921 26.4717Z" fill="#FFE89E"/>
<path d="M105.63 25.9982C104.902 26.3769 104.134 26.5662 103.327 26.5662C102.646 26.5662 102.013 26.4006 101.428 26.0692C100.842 25.7378 100.446 25.2092 100.241 24.4834C100.146 24.152 100.098 23.8049 100.098 23.442C100.098 22.8424 100.201 22.227 100.407 21.5958C100.628 20.9489 100.913 20.3572 101.261 19.8207C101.8 18.9844 102.48 18.2901 103.303 17.7378C104.126 17.1856 105.036 16.9094 106.033 16.9094C106.777 16.9094 107.355 17.0988 107.766 17.4775C108.178 17.8562 108.384 18.298 108.384 18.8029C108.384 19.4025 108.178 19.9311 107.766 20.3887C107.371 20.8305 106.848 21.1698 106.199 21.4065C105.883 21.5169 105.543 21.6037 105.179 21.6668C104.83 21.7142 104.498 21.7378 104.181 21.7378C103.533 21.7378 103.034 21.6511 102.686 21.4775C102.385 22.2507 102.235 22.9607 102.235 23.6077C102.235 24.1915 102.369 24.6728 102.638 25.0515C102.907 25.4144 103.335 25.5958 103.92 25.5958C104.411 25.5958 104.894 25.4617 105.369 25.1935C105.859 24.9252 106.31 24.5939 106.722 24.1994C107.149 23.8049 107.505 23.4262 107.79 23.0633C108.012 22.795 108.202 22.5426 108.36 22.3059C108.518 22.0692 108.684 21.801 108.858 21.5011C109.032 21.1856 109.238 20.799 109.476 20.3414C109.539 20.2309 109.594 20.1757 109.642 20.1757C109.737 20.1757 109.784 20.3019 109.784 20.5544C109.784 20.6964 109.76 20.8542 109.713 21.0278C109.681 21.1856 109.618 21.3512 109.523 21.5248C109.302 21.9193 109.032 22.3532 108.716 22.8266C108.415 23.2842 108.107 23.726 107.79 24.152C107.505 24.5307 107.181 24.8779 106.817 25.1935C106.453 25.509 106.057 25.7773 105.63 25.9982ZM103.469 20.9568C103.548 21.0041 103.635 21.0357 103.73 21.0514C103.825 21.0672 103.92 21.0751 104.015 21.0751C104.332 21.0751 104.648 21.0041 104.965 20.8621C105.281 20.7043 105.551 20.5465 105.772 20.3887C106.136 20.1363 106.445 19.8365 106.698 19.4893C106.951 19.1422 107.094 18.7477 107.125 18.3059C107.141 18.1165 107.094 17.9587 106.983 17.8325C106.888 17.6905 106.714 17.6195 106.461 17.6195C106.334 17.6195 106.176 17.6432 105.986 17.6905C105.733 17.7536 105.479 17.872 105.226 18.0455C104.973 18.2191 104.728 18.4242 104.49 18.6609C104.411 18.7398 104.269 18.8976 104.063 19.1343C103.873 19.3552 103.691 19.6077 103.517 19.8917C103.343 20.1599 103.256 20.3966 103.256 20.6017C103.256 20.7753 103.327 20.8937 103.469 20.9568Z" fill="#FFE89E"/>
<path d="M87.3348 33.7261C86.1182 33.7261 84.9868 33.6176 83.9406 33.4005C82.8943 33.1835 82.0184 32.8217 81.3128 32.3152C80.8262 31.9534 80.449 31.4952 80.1814 30.9404C79.9381 30.3857 79.8164 29.8189 79.8164 29.24C79.8164 28.5165 80.0232 27.8411 80.4369 27.214C80.4426 27.2054 80.4484 27.1968 80.4541 27.1882C80.8687 26.5753 81.5199 26.1619 82.4077 25.9478C82.5294 25.9237 82.6389 25.9116 82.7362 25.9116C82.8578 25.8875 82.9673 25.8754 83.0647 25.8754C83.5513 25.8754 83.9771 25.984 84.3421 26.201C84.7314 26.4181 84.999 26.6714 85.145 26.9608C85.0477 27.0332 84.9138 27.1658 84.7435 27.3588C84.5732 27.5276 84.4637 27.6723 84.415 27.7929C84.0501 28.3959 83.8676 28.9988 83.8676 29.6018C83.8676 30.4219 84.1839 31.0972 84.8165 31.6278C85.4735 32.1343 86.3251 32.3875 87.3713 32.3875C88.3202 32.3875 89.2083 32.1584 90.0356 31.7002C90.8872 31.2178 91.5685 30.5786 92.0795 29.7827C92.6147 28.9868 92.8824 28.0703 92.8824 27.0332C92.8824 26.7912 92.8645 26.5446 92.8286 26.2932C92.7501 25.7425 92.5855 25.1691 92.3349 24.573C92.1472 24.1292 91.9165 23.7151 91.643 23.3307C91.4558 23.0676 91.2484 22.8184 91.021 22.5832C90.4857 22.0044 89.9748 21.4617 89.4882 20.9552C88.8312 20.2557 88.1986 19.5804 87.5903 18.9292C87.0063 18.2539 86.5197 17.5303 86.1304 16.7585C85.7654 15.9626 85.583 15.0702 85.583 14.0813C85.583 13.1407 85.7776 12.2241 86.1669 11.3317C86.5805 10.4393 87.1645 9.6796 87.9188 9.05251C88.7704 8.32894 89.7436 7.82244 90.8385 7.53302C91.9335 7.24359 93.077 7.09888 94.2693 7.09888C95.7535 7.09888 96.9214 7.29183 97.773 7.67773C98.6489 8.03951 99.2694 8.50983 99.6344 9.08869C100.024 9.66754 100.218 10.2826 100.218 10.9338C100.218 11.5609 100.072 12.1638 99.7804 12.7427C99.5127 13.3216 99.1356 13.816 98.6489 14.226C98.1623 14.6119 97.627 14.8531 97.0431 14.9496C96.9457 14.9737 96.8484 14.9858 96.7511 14.9858C96.6538 14.9858 96.5443 14.9858 96.4226 14.9858C95.8873 14.9858 95.4129 14.8652 94.9992 14.624C94.6099 14.3828 94.4153 13.9728 94.4153 13.3939C94.4153 13.3216 94.4153 13.2371 94.4153 13.1407C94.4396 13.0442 94.4639 12.9477 94.4883 12.8512C94.9262 12.8512 95.3764 12.6945 95.8387 12.3809C96.301 12.0674 96.6051 11.7176 96.7511 11.3317C96.8727 11.0182 96.9336 10.7288 96.9336 10.4635C96.9336 9.81225 96.6294 9.30576 96.0211 8.94397C95.4372 8.55807 94.7437 8.36512 93.9408 8.36512C92.9919 8.36512 92.1403 8.57013 91.386 8.98015C90.6561 9.36605 90.0843 9.88461 89.6706 10.5358C89.257 11.1629 89.0502 11.8503 89.0502 12.598C89.0502 13.3457 89.2813 14.0692 89.7436 14.7687C90.1329 15.3234 90.6196 15.9023 91.2035 16.5052C91.7875 17.0841 92.3836 17.6509 92.9919 18.2056C93.6002 18.7362 94.1233 19.2307 94.5613 19.6889C95.5588 20.6537 96.2766 21.6426 96.7146 22.6556C97.0604 23.4364 97.2697 24.2097 97.3425 24.9755C97.3619 25.1796 97.3715 25.3831 97.3715 25.586C97.3715 26.0359 97.3275 26.4759 97.2395 26.9059C97.1105 27.5364 96.8868 28.1456 96.5686 28.7335C96.0576 29.6983 95.3399 30.5545 94.4153 31.3022C93.4907 32.0499 92.4201 32.6408 91.2035 33.0749C89.9869 33.5091 88.6974 33.7261 87.3348 33.7261Z" fill="#FFE89E"/>
<path d="M80.4541 27.1882C80.8687 26.5753 81.5199 26.1619 82.4077 25.9478C82.5294 25.9237 82.6389 25.9116 82.7362 25.9116C82.8578 25.8875 82.9673 25.8754 83.0647 25.8754C83.5513 25.8754 83.9771 25.984 84.3421 26.201C84.7314 26.4181 84.999 26.6714 85.145 26.9608C86.6049 25.8754 88.9154 25.9722 92.8286 26.2932C92.7501 25.7425 92.5855 25.1691 92.3349 24.573C92.1472 24.1292 91.9165 23.7151 91.643 23.3307C87.5522 22.7048 83.0669 23.2902 80.4541 27.1882Z" fill="#FFE89E"/>
<path d="M97.3425 24.9755C97.3619 25.1796 97.3715 25.3831 97.3715 25.586C97.3715 26.0359 97.3275 26.4759 97.2395 26.9059C101.051 27.6322 105.442 29.7094 111.161 31.3022C137.127 38.5338 146.401 30.7676 140.095 26.5146C139.538 30.2128 126.184 35.3904 98.6489 25.586C98.2562 25.3846 97.8179 25.1785 97.3425 24.9755Z" fill="#FFE89E"/>
<path d="M80.1208 45.0193V39.1542H82.4586C83.0671 39.1542 83.5359 39.2857 83.865 39.5487C84.2002 39.8116 84.3679 40.1819 84.3679 40.6594C84.3679 41.1369 84.222 41.5037 83.9301 41.7597C83.6383 42.0158 83.2596 42.1438 82.7939 42.1438L82.9243 41.9051C83.4769 41.9051 83.9022 42.0366 84.2002 42.2995C84.5045 42.5556 84.6566 42.9362 84.6566 43.4414C84.6566 43.9397 84.4859 44.3272 84.1444 44.604C83.8029 44.8809 83.2906 45.0193 82.6076 45.0193H80.1208ZM80.7914 44.4379H82.589C83.0422 44.4379 83.3868 44.3549 83.6228 44.1888C83.8587 44.0158 83.9767 43.7494 83.9767 43.3895C83.9767 43.0227 83.8587 42.7563 83.6228 42.5902C83.3868 42.4241 83.0422 42.3411 82.589 42.3411H80.6797V41.7597H82.412C82.8218 41.7597 83.1385 41.6732 83.362 41.5002C83.5918 41.3272 83.7066 41.0746 83.7066 40.7424C83.7066 40.4103 83.5918 40.1611 83.362 39.995C83.1385 39.822 82.8218 39.7355 82.412 39.7355H80.7914V44.4379Z" fill="#F0EADB"/>
<path d="M86.619 41.739H89.4503V42.3514H86.619V41.739ZM86.7307 44.3964H89.8881V45.0193H86.0601V39.1542H89.7763V39.777H86.7307V44.3964Z" fill="#F0EADB"/>
<path d="M90.3762 45.0193L92.807 39.1542H93.4683L95.8992 45.0193H95.2286L93.0213 39.5591H93.2541L91.0374 45.0193H90.3762ZM91.4007 43.5037L91.5963 42.9016H94.5953L94.7909 43.5037H91.4007Z" fill="#F0EADB"/>
<path d="M98.9448 45.0815C98.4791 45.0815 98.0787 44.9847 97.7434 44.7909C97.4143 44.5902 97.1597 44.2995 96.9796 43.9189C96.7996 43.5383 96.7095 43.0746 96.7095 42.5279V39.1542H97.3801V42.5071C97.3801 43.1507 97.5167 43.6352 97.7899 43.9604C98.0631 44.2788 98.4481 44.4379 98.9448 44.4379C99.4478 44.4379 99.8358 44.2788 100.109 43.9604C100.382 43.6352 100.519 43.1507 100.519 42.5071V39.1542H101.171V42.5279C101.171 43.0746 101.081 43.5383 100.901 43.9189C100.727 44.2995 100.472 44.5902 100.137 44.7909C99.8079 44.9847 99.4105 45.0815 98.9448 45.0815Z" fill="#F0EADB"/>
<path d="M103.981 45.0193V39.777H102.128V39.1542H106.505V39.777H104.652V45.0193H103.981Z" fill="#F0EADB"/>
<path d="M108.747 45.0193V42.8289L108.877 43.3272L106.567 39.1542H107.284L109.268 42.7148H108.914L110.898 39.1542H111.587L109.287 43.3272L109.408 42.8289V45.0193H108.747Z" fill="#F0EADB"/>
<path d="M118.567 43.4206C118.567 43.7459 118.486 44.0331 118.325 44.2822C118.17 44.5314 117.94 44.7286 117.636 44.8739C117.338 45.0123 116.968 45.0815 116.527 45.0815C116.124 45.0815 115.736 45.0123 115.363 44.8739C114.997 44.7355 114.708 44.5591 114.497 44.3445L114.776 43.7632C114.969 43.9639 115.223 44.13 115.54 44.2615C115.863 44.386 116.198 44.4483 116.546 44.4483C117.03 44.4483 117.375 44.3549 117.58 44.168C117.791 43.9743 117.897 43.7459 117.897 43.4829C117.897 43.2615 117.838 43.0885 117.72 42.9639C117.602 42.8324 117.446 42.7286 117.254 42.6525C117.061 42.5694 116.85 42.5002 116.621 42.4449C116.391 42.3895 116.161 42.3272 115.931 42.258C115.702 42.1888 115.487 42.0954 115.289 41.9777C115.096 41.8601 114.941 41.7044 114.823 41.5106C114.711 41.3168 114.655 41.0608 114.655 40.7424C114.655 40.4241 114.733 40.1404 114.888 39.8912C115.043 39.6421 115.27 39.4449 115.568 39.2995C115.866 39.1542 116.232 39.0815 116.667 39.0815C116.978 39.0815 117.282 39.1265 117.58 39.2165C117.884 39.2995 118.145 39.4276 118.362 39.6006L118.12 40.2027C117.897 40.0296 117.657 39.9085 117.403 39.8393C117.148 39.7632 116.897 39.7251 116.648 39.7251C116.189 39.7251 115.851 39.822 115.633 40.0158C115.422 40.2027 115.317 40.4345 115.317 40.7113C115.317 40.9328 115.376 41.1092 115.494 41.2407C115.612 41.3653 115.767 41.4691 115.959 41.5521C116.152 41.6283 116.363 41.694 116.593 41.7494C116.829 41.8047 117.061 41.867 117.291 41.9362C117.521 42.0054 117.732 42.0988 117.924 42.2165C118.117 42.3272 118.272 42.4795 118.39 42.6732C118.508 42.867 118.567 43.1161 118.567 43.4206Z" fill="#F0EADB"/>
<path d="M118.99 45.0193L121.421 39.1542H122.082L124.513 45.0193H123.843L121.635 39.5591H121.868L119.652 45.0193H118.99ZM120.015 43.5037L120.21 42.9016H123.209L123.405 43.5037H120.015Z" fill="#F0EADB"/>
<path d="M125.516 45.0193V39.1542H126.187V44.3964H129.12V45.0193H125.516Z" fill="#F0EADB"/>
<path d="M132.337 45.0815C131.803 45.0815 131.321 44.9535 130.893 44.6975C130.465 44.4345 130.126 44.0781 129.878 43.6283C129.636 43.1715 129.515 42.6559 129.515 42.0815C129.515 41.5071 129.636 40.995 129.878 40.5452C130.126 40.0954 130.465 39.739 130.893 39.476C131.321 39.213 131.803 39.0815 132.337 39.0815C132.877 39.0815 133.358 39.213 133.78 39.476C134.209 39.739 134.544 40.0954 134.786 40.5452C135.035 40.995 135.159 41.5071 135.159 42.0815C135.159 42.6559 135.035 43.1715 134.786 43.6283C134.544 44.0781 134.209 44.4345 133.78 44.6975C133.358 44.9535 132.877 45.0815 132.337 45.0815ZM132.337 44.4379C132.753 44.4379 133.122 44.3376 133.445 44.1369C133.768 43.9293 134.022 43.649 134.209 43.2961C134.395 42.9362 134.488 42.5314 134.488 42.0815C134.488 41.6317 134.392 41.2303 134.199 40.8774C134.013 40.5244 133.759 40.2476 133.436 40.0469C133.119 39.8393 132.753 39.7355 132.337 39.7355C131.927 39.7355 131.557 39.8393 131.228 40.0469C130.905 40.2476 130.651 40.5244 130.465 40.8774C130.278 41.2303 130.185 41.6317 130.185 42.0815C130.185 42.5314 130.278 42.9362 130.465 43.2961C130.651 43.649 130.905 43.9293 131.228 44.1369C131.557 44.3376 131.927 44.4379 132.337 44.4379Z" fill="#F0EADB"/>
<path d="M136.585 45.0193V39.1542H137.135L140.711 44.0954H140.45V39.1542H141.121V45.0193H140.562L136.986 40.0677H137.256V45.0193H136.585Z" fill="#F0EADB"/>
</svg>
